<?xml version="1.0" encoding="UTF-8" standalone="no"?>
<!DOCTYPE svg PUBLIC "-//W3C//DTD SVG 1.1//EN" "http://www.w3.org/Graphics/SVG/1.1/DTD/svg11.dtd">
<!-- Created with Vectornator (http://vectornator.io/) -->
<svg height="100%" stroke-miterlimit="10" style="fill-rule:nonzero;clip-rule:evenodd;stroke-linecap:round;stroke-linejoin:round;" version="1.1" viewBox="0 0 1024 1024" width="100%" xml:space="preserve" xmlns="http://www.w3.org/2000/svg" xmlns:vectornator="http://vectornator.io" xmlns:xlink="http://www.w3.org/1999/xlink">
<defs>
<filter color-interpolation-filters="sRGB" filterUnits="userSpaceOnUse" height="505.744" id="Filter" width="723.151" x="237.174" y="444.521">
<feGaussianBlur in="SourceGraphic" result="Blur" stdDeviation="0.0964153"/>
</filter>
</defs>
<g id="Layer-1" vectornator:layerName="Layer 1">
<path d="M2.84217e-14 0L1024 0L1024 1024L2.84217e-14 1024L2.84217e-14 0Z" fill="#ffdf00" fill-rule="nonzero" opacity="1" stroke="none" vectornator:layerName="Rectangle 1"/>
<g fill="#000000" filter="url(#Filter)" opacity="1" stroke="#000000" stroke-linecap="butt" stroke-linejoin="miter" stroke-width="28.0105" vectornator:blur="0.192831" vectornator:layerName="Text 1">
<path d="M510.342 788.108C510.342 826.239 504.704 855.862 493.429 876.977C472.518 915.518 432.747 934.789 374.116 934.789C340.29 934.789 311.385 925.615 287.399 907.267C263.413 888.919 251.421 856.272 251.421 809.326L251.421 777.038L308.925 777.038L308.925 809.326C308.925 833.926 314.408 852.428 325.376 864.831C336.344 877.234 353.411 883.435 376.576 883.435C409.172 883.435 430.492 872.262 440.538 849.917C446.688 836.181 449.763 810.248 449.763 772.117L449.763 471.068L510.342 471.068L510.342 788.108Z"/>
<path d="M643.492 777.038C644.927 802.663 650.975 823.471 661.635 839.462C681.931 869.392 717.704 884.358 768.955 884.358C791.916 884.358 812.826 881.078 831.687 874.517C868.178 861.807 886.423 839.052 886.423 806.251C886.423 781.65 878.735 764.122 863.36 753.667C847.78 743.417 823.384 734.499 790.173 726.914L728.979 713.076C689.003 704.056 660.713 694.113 644.107 683.248C615.407 664.387 601.056 636.199 601.056 598.683C601.056 558.092 615.099 524.779 643.185 498.743C671.271 472.708 711.041 459.69 762.498 459.69C809.854 459.69 850.086 471.119 883.194 493.977C916.303 516.835 932.857 553.377 932.857 603.603L875.353 603.603C872.278 579.413 865.718 560.86 855.672 547.945C837.017 524.369 805.344 512.581 760.653 512.581C724.572 512.581 698.639 520.167 682.853 535.337C667.068 550.507 659.175 568.138 659.175 588.228C659.175 610.369 668.4 626.564 686.851 636.814C698.946 643.374 726.314 651.575 768.955 661.415L832.302 675.868C862.848 682.838 886.423 692.371 903.029 704.466C931.729 725.581 946.08 756.23 946.08 796.411C946.08 846.432 927.885 882.205 891.497 903.731C855.109 925.256 812.826 936.019 764.65 936.019C708.479 936.019 664.505 921.668 632.73 892.968C600.954 864.472 585.374 825.829 585.989 777.038L643.492 777.038Z"/>
</g>
</g>
</svg>
