<?xml version="1.0" encoding="UTF-8" standalone="no"?>
<!DOCTYPE svg PUBLIC "-//W3C//DTD SVG 1.1//EN" "http://www.w3.org/Graphics/SVG/1.1/DTD/svg11.dtd">
<!-- Created with Vectornator (http://vectornator.io/) -->
<svg height="100%" stroke-miterlimit="10" style="fill-rule:nonzero;clip-rule:evenodd;stroke-linecap:round;stroke-linejoin:round;" version="1.1" viewBox="0 0 512 512" width="100%" xml:space="preserve" xmlns="http://www.w3.org/2000/svg" xmlns:vectornator="http://vectornator.io" xmlns:xlink="http://www.w3.org/1999/xlink">
<defs/>
<g id="Layer-2" vectornator:layerName="Layer 2">
<path d="M304.39 1.24878C304.39 1.24878 320 41.522 264.429 92.722C228.257 126.049 192.312 144.859 182.634 185.756C179.563 198.735 180.137 245.698 246.946 280.351C246.946 280.351 190.591 223.411 215.102 177.015C232.585 143.922 279.102 127.063 309.073 73.0537C330.157 35.0581 304.39 1.24878 304.39 1.24878Z" fill="#de8e2f" fill-rule="nonzero" opacity="1" stroke="none" vectornator:layerName="Curve 1"/>
<path d="M274.054 297.007C304.599 266.461 259.872 223.916 255.235 207.007C240.522 153.344 329.417 107.461 352.054 106.37C352.054 106.37 275.963 149.734 284.963 189.279C291.188 216.632 312.574 234.562 309.781 253.37C305.69 280.916 274.054 297.007 274.054 297.007Z" fill="#de8e2f" fill-rule="nonzero" opacity="1" stroke="none" vectornator:layerName="Curve 2"/>
<path d="M380.533 280.572C405.896 266.936 438.078 283.845 440.533 305.39C445.365 347.809 378.351 374.117 358.169 377.663C358.169 377.663 419.533 345.754 417.351 312.208C414.944 275.211 380.533 280.572 380.533 280.572Z" fill="#427595" fill-rule="nonzero" opacity="1" stroke="none" vectornator:layerName="Curve 3"/>
<path d="M199.987 280.845C199.987 280.845 120.873 285.16 117.896 304.299C115.987 316.572 170.26 327.481 229.442 330.754C266.461 332.801 331.169 329.663 369.078 313.027L352.714 302.936C292.987 324.208 164.063 313.504 153.078 301.299C143.26 290.39 199.987 280.845 199.987 280.845Z" fill="#427595" fill-rule="nonzero" opacity="1" stroke="none" vectornator:layerName="Curve 4"/>
<path d="M179.519 341.074C179.519 341.074 140.316 346.227 140.944 359.117C141.567 371.872 174.97 378.032 200.984 380.582C232.715 383.693 304.575 384.004 346.883 366.583L327.284 355.073C277.511 367.205 232.403 366.583 196.94 361.295C159.648 355.734 174.542 343.563 179.519 341.074Z" fill="#427595" fill-rule="nonzero" opacity="1" stroke="none" vectornator:layerName="Curve 5"/>
<path d="M194.14 398.936C194.14 398.936 163.526 404.019 163.965 415.424C164.276 423.512 182.941 432.533 215.605 436.888C248.129 441.225 295.865 438.133 325.418 424.134L298.665 409.202C248.891 421.023 209.072 413.868 209.072 413.868C177.964 406.713 194.14 398.936 194.14 398.936Z" fill="#427595" fill-rule="nonzero" opacity="1" stroke="none" vectornator:layerName="Curve 6"/>
<path d="M143.486 415.959C143.486 415.959 58.7042 429.55 70.3285 449.569C82.1073 469.854 145.461 478.699 164.214 481.02C220.318 487.964 359.677 489.191 401.281 455.807C413.667 445.868 401.773 434.504 401.773 434.504C384.847 468.932 277.541 471.102 241.128 471.098C203.228 471.094 102.55 464.222 108.163 438.522C111.041 425.344 143.486 415.959 143.486 415.959Z" fill="#427595" fill-rule="nonzero" opacity="1" stroke="none" vectornator:layerName="Curve 7"/>
<path d="M428.435 459.724C428.435 459.724 404.905 478.097 366.045 489.589C323.396 502.201 287.131 503.243 287.131 503.243C287.131 503.243 259.851 505.473 222.191 503.694C166.661 501.07 134.37 494.717 134.37 494.717C150.945 504.846 225.536 513.748 291.225 510.679C357.575 507.578 425.059 485.508 428.435 459.724Z" fill="#427595" fill-rule="nonzero" opacity="1" stroke="none" vectornator:layerName="Curve 8"/>
</g>
</svg>
