<?xml version="1.0" encoding="UTF-8" standalone="no"?>
<!DOCTYPE svg PUBLIC "-//W3C//DTD SVG 1.1//EN" "http://www.w3.org/Graphics/SVG/1.1/DTD/svg11.dtd">
<!-- Created with Vectornator (http://vectornator.io/) -->
<svg height="100%" stroke-miterlimit="10" style="fill-rule:nonzero;clip-rule:evenodd;stroke-linecap:round;stroke-linejoin:round;" version="1.1" viewBox="0 0 1500 2800" width="100%" xml:space="preserve" xmlns="http://www.w3.org/2000/svg" xmlns:vectornator="http://vectornator.io" xmlns:xlink="http://www.w3.org/1999/xlink">
<defs>
<radialGradient cx="745.164" cy="1390.64" gradientTransform="matrix(1 0 0 1 0 0)" gradientUnits="userSpaceOnUse" id="RadialGradient" r="3061.24">
<stop offset="0" stop-color="#ffeaa0"/>
<stop offset="1" stop-color="#f9de1b"/>
</radialGradient>
<filter color-interpolation-filters="sRGB" filterUnits="userSpaceOnUse" height="2631.32" id="Filter" width="1269.32" x="147.29" y="122.695">
<feDropShadow dx="32.2117" dy="38.2414" flood-color="#000000" flood-opacity="0.572087" in="SourceGraphic" result="Shadow" stdDeviation="19.863"/>
</filter>
<filter color-interpolation-filters="sRGB" filterUnits="userSpaceOnUse" height="180.006" id="Filter_2" width="973.658" x="272.075" y="1335.14">
<feDropShadow dx="12.0242" dy="14.2751" flood-color="#000000" flood-opacity="0.4" in="SourceGraphic" result="Shadow" stdDeviation="17.2414"/>
</filter>
<filter color-interpolation-filters="sRGB" filterUnits="userSpaceOnUse" height="219.141" id="Filter_3" width="989.796" x="266.101" y="1080.35">
<feDropShadow dx="12.0242" dy="14.2751" flood-color="#000000" flood-opacity="0.4" in="SourceGraphic" result="Shadow" stdDeviation="17.2414"/>
</filter>
</defs>
<g id="Layer-1" vectornator:layerName="Layer 1">
<path d="M164.736 372.059C164.736 240.644 271.383 134.111 402.939 134.111L1096.53 134.111C1228.09 134.111 1334.74 240.644 1334.74 372.059L1334.74 2428.16C1334.74 2559.58 1228.09 2666.11 1096.53 2666.11L402.939 2666.11C271.383 2666.11 164.736 2559.58 164.736 2428.16L164.736 372.059Z" fill="url(#RadialGradient)" fill-rule="nonzero" filter="url(#Filter)" stroke="none" vectornator:layerName="Rectangle 3" vectornator:shadowAngle="0.870775" vectornator:shadowColor="#000000" vectornator:shadowOffset="50" vectornator:shadowOpacity="0.572087" vectornator:shadowRadius="39.726"/>
<g fill="#ffffff" filter="url(#Filter_2)" stroke="none" vectornator:layerName="Text 2" vectornator:shadowAngle="0.870775" vectornator:shadowColor="#000000" vectornator:shadowOffset="18.6644" vectornator:shadowOpacity="0.4" vectornator:shadowRadius="34.4827">
<path d="M356.572 1377.15L340.751 1377.15L340.751 1429.15C340.751 1432.15 340.084 1434.37 338.749 1435.82C337.415 1437.26 335.689 1437.99 333.574 1437.99C331.425 1437.99 329.675 1437.26 328.325 1435.79C326.974 1434.33 326.298 1432.11 326.298 1429.15L326.298 1377.15L310.478 1377.15C308.004 1377.15 306.165 1376.6 304.96 1375.51C303.756 1374.42 303.154 1372.98 303.154 1371.19C303.154 1369.34 303.78 1367.87 305.034 1366.8C306.287 1365.72 308.102 1365.19 310.478 1365.19L356.572 1365.19C359.078 1365.19 360.942 1365.74 362.162 1366.85C363.383 1367.95 363.994 1369.4 363.994 1371.19C363.994 1372.98 363.375 1374.42 362.138 1375.51C360.901 1376.6 359.046 1377.15 356.572 1377.15Z"/>
<path d="M383.378 1372.07L383.378 1391.85C385.071 1389.89 386.723 1388.35 388.334 1387.21C389.946 1386.07 391.728 1385.21 393.681 1384.64C395.634 1384.07 397.734 1383.79 399.98 1383.79C403.365 1383.79 406.368 1384.51 408.989 1385.94C411.609 1387.37 413.668 1389.45 415.165 1392.19C416.109 1393.78 416.744 1395.56 417.07 1397.53C417.395 1399.5 417.558 1401.77 417.558 1404.35L417.558 1429.88C417.558 1432.55 416.948 1434.57 415.727 1435.94C414.506 1437.3 412.887 1437.99 410.869 1437.99C406.474 1437.99 404.277 1435.29 404.277 1429.88L404.277 1407.37C404.277 1403.11 403.642 1399.83 402.372 1397.53C401.103 1395.24 398.694 1394.09 395.146 1394.09C392.77 1394.09 390.629 1394.77 388.725 1396.12C386.821 1397.47 385.397 1399.32 384.453 1401.66C383.736 1403.65 383.378 1407.18 383.378 1412.26L383.378 1429.88C383.378 1432.52 382.784 1434.53 381.596 1435.91C380.408 1437.3 378.756 1437.99 376.64 1437.99C372.245 1437.99 370.048 1435.29 370.048 1429.88L370.048 1372.07C370.048 1369.37 370.626 1367.34 371.782 1365.99C372.937 1364.64 374.557 1363.96 376.64 1363.96C378.756 1363.96 380.408 1364.65 381.596 1366.02C382.784 1367.38 383.378 1369.4 383.378 1372.07Z"/>
<path d="M464.433 1430.47C461.21 1432.98 458.093 1434.86 455.082 1436.11C452.071 1437.36 448.694 1437.99 444.951 1437.99C441.533 1437.99 438.53 1437.31 435.942 1435.96C433.354 1434.61 431.36 1432.78 429.96 1430.47C428.561 1428.16 427.861 1425.65 427.861 1422.95C427.861 1419.3 429.016 1416.19 431.328 1413.62C433.639 1411.05 436.813 1409.33 440.849 1408.45C441.695 1408.25 443.795 1407.81 447.148 1407.13C450.501 1406.45 453.373 1405.82 455.766 1405.25C458.159 1404.68 460.755 1403.99 463.554 1403.17C463.391 1399.66 462.683 1397.08 461.43 1395.43C460.177 1393.79 457.581 1392.97 453.642 1392.97C450.257 1392.97 447.709 1393.44 446 1394.38C444.291 1395.33 442.827 1396.74 441.606 1398.63C440.385 1400.52 439.522 1401.77 439.018 1402.37C438.513 1402.97 437.431 1403.27 435.771 1403.27C434.273 1403.27 432.98 1402.79 431.889 1401.83C430.799 1400.87 430.253 1399.64 430.253 1398.14C430.253 1395.8 431.083 1393.52 432.744 1391.31C434.404 1389.1 436.992 1387.27 440.507 1385.84C444.023 1384.41 448.401 1383.69 453.642 1383.69C459.501 1383.69 464.107 1384.38 467.46 1385.77C470.813 1387.15 473.181 1389.34 474.565 1392.33C475.948 1395.33 476.64 1399.3 476.64 1404.25C476.64 1407.37 476.632 1410.03 476.616 1412.21C476.599 1414.39 476.575 1416.81 476.542 1419.48C476.542 1421.99 476.957 1424.6 477.787 1427.32C478.618 1430.04 479.033 1431.79 479.033 1432.57C479.033 1433.94 478.39 1435.18 477.104 1436.3C475.818 1437.43 474.361 1437.99 472.734 1437.99C471.367 1437.99 470.016 1437.35 468.681 1436.06C467.346 1434.77 465.93 1432.91 464.433 1430.47ZM463.554 1411.18C461.601 1411.9 458.761 1412.65 455.034 1413.45C451.306 1414.25 448.727 1414.84 447.294 1415.21C445.862 1415.58 444.495 1416.32 443.193 1417.41C441.891 1418.5 441.24 1420.02 441.24 1421.97C441.24 1423.99 442.005 1425.71 443.535 1427.12C445.064 1428.54 447.066 1429.25 449.54 1429.25C452.177 1429.25 454.61 1428.67 456.84 1427.51C459.07 1426.36 460.706 1424.87 461.747 1423.05C462.952 1421.03 463.554 1417.71 463.554 1413.09L463.554 1411.18Z"/>
<path d="M502.275 1391.16L502.275 1392.77C504.619 1389.68 507.182 1387.41 509.965 1385.96C512.748 1384.51 515.947 1383.79 519.56 1383.79C523.076 1383.79 526.217 1384.55 528.984 1386.08C531.751 1387.61 533.818 1389.78 535.185 1392.58C536.064 1394.21 536.634 1395.96 536.894 1397.85C537.154 1399.74 537.285 1402.15 537.285 1405.08L537.285 1429.88C537.285 1432.55 536.674 1434.57 535.453 1435.94C534.233 1437.3 532.646 1437.99 530.693 1437.99C528.707 1437.99 527.096 1437.29 525.859 1435.89C524.622 1434.49 524.003 1432.49 524.003 1429.88L524.003 1407.67C524.003 1403.27 523.393 1399.91 522.172 1397.58C520.952 1395.26 518.518 1394.09 514.872 1394.09C512.496 1394.09 510.331 1394.8 508.378 1396.22C506.425 1397.63 504.993 1399.58 504.081 1402.05C503.43 1404.04 503.105 1407.75 503.105 1413.18L503.105 1429.88C503.105 1432.58 502.478 1434.61 501.225 1435.96C499.972 1437.31 498.352 1437.99 496.367 1437.99C494.446 1437.99 492.867 1437.29 491.63 1435.89C490.393 1434.49 489.775 1432.49 489.775 1429.88L489.775 1391.36C489.775 1388.82 490.328 1386.92 491.435 1385.67C492.542 1384.42 494.055 1383.79 495.976 1383.79C497.148 1383.79 498.206 1384.07 499.15 1384.62C500.094 1385.17 500.851 1386 501.42 1387.11C501.99 1388.22 502.275 1389.57 502.275 1391.16Z"/>
<path d="M583.769 1431.88L572.001 1412.55L564.775 1419.38L564.775 1429.98C564.775 1432.55 564.099 1434.53 562.748 1435.91C561.397 1437.3 559.843 1437.99 558.085 1437.99C556.035 1437.99 554.423 1437.3 553.251 1435.94C552.079 1434.57 551.494 1432.55 551.494 1429.88L551.494 1373.05C551.494 1370.08 552.063 1367.83 553.203 1366.28C554.342 1364.74 555.969 1363.96 558.085 1363.96C560.136 1363.96 561.764 1364.66 562.968 1366.06C564.173 1367.46 564.775 1369.53 564.775 1372.27L564.775 1404.59L579.765 1388.87C581.62 1386.91 583.036 1385.58 584.013 1384.86C584.99 1384.15 586.178 1383.79 587.578 1383.79C589.238 1383.79 590.621 1384.32 591.728 1385.38C592.835 1386.43 593.388 1387.76 593.388 1389.36C593.388 1391.31 591.581 1393.91 587.968 1397.17L580.888 1403.66L594.56 1425.15C595.569 1426.74 596.293 1427.95 596.733 1428.78C597.172 1429.61 597.392 1430.4 597.392 1431.15C597.392 1433.27 596.814 1434.94 595.659 1436.16C594.503 1437.38 592.981 1437.99 591.093 1437.99C589.466 1437.99 588.212 1437.55 587.333 1436.67C586.454 1435.79 585.266 1434.2 583.769 1431.88Z"/>
<path d="M648.32 1420.56C648.32 1424.24 647.425 1427.38 645.634 1430C643.844 1432.63 641.199 1434.61 637.7 1435.96C634.2 1437.31 629.944 1437.99 624.931 1437.99C620.146 1437.99 616.044 1437.26 612.626 1435.79C609.208 1434.33 606.686 1432.5 605.058 1430.3C603.43 1428.1 602.617 1425.9 602.617 1423.68C602.617 1422.22 603.137 1420.96 604.179 1419.92C605.221 1418.88 606.539 1418.36 608.134 1418.36C609.534 1418.36 610.608 1418.7 611.357 1419.38C612.106 1420.07 612.822 1421.03 613.505 1422.27C614.872 1424.64 616.508 1426.42 618.412 1427.59C620.317 1428.76 622.913 1429.35 626.201 1429.35C628.87 1429.35 631.059 1428.75 632.768 1427.56C634.477 1426.38 635.331 1425.02 635.331 1423.49C635.331 1421.14 634.444 1419.43 632.67 1418.36C630.896 1417.29 627.975 1416.26 623.906 1415.28C619.316 1414.14 615.58 1412.95 612.7 1411.69C609.819 1410.44 607.516 1408.79 605.79 1406.74C604.065 1404.69 603.203 1402.16 603.203 1399.17C603.203 1396.5 604 1393.98 605.595 1391.6C607.19 1389.23 609.542 1387.33 612.651 1385.91C615.759 1384.5 619.511 1383.79 623.906 1383.79C627.356 1383.79 630.457 1384.15 633.207 1384.86C635.958 1385.58 638.253 1386.54 640.092 1387.74C641.931 1388.95 643.331 1390.28 644.291 1391.75C645.252 1393.21 645.732 1394.65 645.732 1396.04C645.732 1397.57 645.219 1398.83 644.194 1399.8C643.168 1400.78 641.712 1401.27 639.824 1401.27C638.456 1401.27 637.293 1400.88 636.332 1400.1C635.372 1399.32 634.273 1398.14 633.036 1396.58C632.027 1395.28 630.839 1394.24 629.472 1393.46C628.105 1392.68 626.249 1392.29 623.906 1392.29C621.497 1392.29 619.495 1392.8 617.9 1393.82C616.305 1394.85 615.507 1396.13 615.507 1397.66C615.507 1399.06 616.093 1400.2 617.265 1401.1C618.437 1401.99 620.016 1402.73 622.001 1403.32C623.987 1403.91 626.721 1404.62 630.204 1405.47C634.339 1406.48 637.716 1407.68 640.336 1409.08C642.957 1410.48 644.942 1412.13 646.293 1414.04C647.644 1415.94 648.32 1418.12 648.32 1420.56Z"/>
<path d="M683.525 1384.96L686.699 1384.96L686.699 1380.96C686.699 1376.79 687.228 1373.48 688.286 1371.02C689.343 1368.56 691.134 1366.77 693.657 1365.65C696.179 1364.53 699.638 1363.96 704.033 1363.96C711.813 1363.96 715.703 1365.87 715.703 1369.68C715.703 1370.91 715.296 1371.97 714.482 1372.85C713.668 1373.73 712.708 1374.17 711.601 1374.17C711.08 1374.17 710.185 1374.07 708.915 1373.88C707.646 1373.68 706.572 1373.58 705.693 1373.58C703.284 1373.58 701.738 1374.29 701.054 1375.71C700.37 1377.12 700.029 1379.15 700.029 1381.79L700.029 1384.96L703.3 1384.96C708.378 1384.96 710.917 1386.49 710.917 1389.55C710.917 1391.73 710.242 1393.12 708.891 1393.7C707.54 1394.29 705.676 1394.58 703.3 1394.58L700.029 1394.58L700.029 1429.88C700.029 1432.52 699.402 1434.53 698.149 1435.91C696.896 1437.3 695.276 1437.99 693.29 1437.99C691.402 1437.99 689.832 1437.3 688.578 1435.91C687.325 1434.53 686.699 1432.52 686.699 1429.88L686.699 1394.58L683.036 1394.58C681.051 1394.58 679.521 1394.13 678.447 1393.24C677.372 1392.34 676.835 1391.18 676.835 1389.75C676.835 1386.56 679.065 1384.96 683.525 1384.96Z"/>
<path d="M766.484 1410.89C766.484 1414.86 765.865 1418.52 764.628 1421.87C763.391 1425.23 761.601 1428.11 759.257 1430.52C756.913 1432.93 754.114 1434.77 750.859 1436.06C747.604 1437.35 743.941 1437.99 739.872 1437.99C735.836 1437.99 732.206 1437.34 728.984 1436.04C725.761 1434.73 722.97 1432.87 720.61 1430.44C718.25 1428.02 716.459 1425.15 715.239 1421.85C714.018 1418.55 713.408 1414.89 713.408 1410.89C713.408 1406.85 714.026 1403.16 715.263 1399.8C716.5 1396.45 718.274 1393.59 720.585 1391.21C722.897 1388.83 725.696 1387 728.984 1385.72C732.272 1384.43 735.901 1383.79 739.872 1383.79C743.909 1383.79 747.571 1384.44 750.859 1385.74C754.147 1387.04 756.962 1388.9 759.306 1391.31C761.65 1393.72 763.432 1396.58 764.653 1399.9C765.873 1403.22 766.484 1406.88 766.484 1410.89ZM753.105 1410.89C753.105 1405.45 751.909 1401.22 749.516 1398.19C747.123 1395.17 743.909 1393.65 739.872 1393.65C737.268 1393.65 734.973 1394.33 732.988 1395.68C731.002 1397.03 729.472 1399.02 728.398 1401.66C727.324 1404.3 726.786 1407.37 726.786 1410.89C726.786 1414.37 727.315 1417.42 728.373 1420.02C729.431 1422.62 730.945 1424.62 732.914 1426C734.884 1427.38 737.203 1428.08 739.872 1428.08C743.909 1428.08 747.123 1426.55 749.516 1423.51C751.909 1420.47 753.105 1416.26 753.105 1410.89Z"/>
<path d="M790.214 1418.75L790.214 1429.88C790.214 1432.58 789.579 1434.61 788.31 1435.96C787.04 1437.31 785.429 1437.99 783.476 1437.99C781.555 1437.99 779.977 1437.3 778.74 1435.94C777.503 1434.57 776.884 1432.55 776.884 1429.88L776.884 1392.77C776.884 1386.78 779.049 1383.79 783.378 1383.79C785.592 1383.79 787.187 1384.49 788.163 1385.89C789.14 1387.29 789.677 1389.36 789.775 1392.09C791.37 1389.36 793.006 1387.29 794.682 1385.89C796.358 1384.49 798.596 1383.79 801.396 1383.79C804.195 1383.79 806.913 1384.49 809.55 1385.89C812.187 1387.29 813.505 1389.14 813.505 1391.46C813.505 1393.08 812.944 1394.43 811.821 1395.48C810.698 1396.54 809.485 1397.07 808.183 1397.07C807.695 1397.07 806.515 1396.77 804.643 1396.17C802.771 1395.56 801.119 1395.26 799.687 1395.26C797.734 1395.26 796.139 1395.78 794.902 1396.8C793.665 1397.83 792.704 1399.35 792.021 1401.37C791.337 1403.39 790.865 1405.79 790.605 1408.57C790.344 1411.35 790.214 1414.75 790.214 1418.75Z"/>
<path d="M893.583 1421.48C893.583 1423.14 893.087 1424.92 892.094 1426.81C891.101 1428.69 889.588 1430.49 887.553 1432.2C885.519 1433.91 882.955 1435.29 879.863 1436.33C876.77 1437.37 873.287 1437.89 869.413 1437.89C861.178 1437.89 854.749 1435.49 850.126 1430.69C845.504 1425.89 843.193 1419.45 843.193 1411.38C843.193 1405.91 844.251 1401.07 846.367 1396.87C848.482 1392.68 851.542 1389.43 855.546 1387.13C859.55 1384.84 864.335 1383.69 869.902 1383.69C873.352 1383.69 876.518 1384.2 879.399 1385.21C882.28 1386.21 884.721 1387.52 886.723 1389.11C888.725 1390.71 890.255 1392.41 891.313 1394.21C892.371 1396.02 892.9 1397.71 892.9 1399.27C892.9 1400.86 892.306 1402.21 891.118 1403.32C889.929 1404.43 888.489 1404.98 886.796 1404.98C885.689 1404.98 884.77 1404.7 884.037 1404.13C883.305 1403.56 882.483 1402.64 881.572 1401.37C879.944 1398.89 878.243 1397.04 876.469 1395.8C874.695 1394.56 872.441 1393.95 869.706 1393.95C865.768 1393.95 862.594 1395.48 860.185 1398.56C857.776 1401.64 856.572 1405.84 856.572 1411.18C856.572 1413.69 856.881 1415.99 857.499 1418.09C858.118 1420.19 859.013 1421.98 860.185 1423.46C861.357 1424.94 862.773 1426.07 864.433 1426.83C866.093 1427.6 867.916 1427.98 869.902 1427.98C872.571 1427.98 874.858 1427.36 876.762 1426.12C878.666 1424.89 880.351 1423 881.816 1420.46C882.63 1418.96 883.509 1417.79 884.453 1416.94C885.397 1416.1 886.552 1415.67 887.919 1415.67C889.547 1415.67 890.898 1416.29 891.972 1417.53C893.046 1418.77 893.583 1420.08 893.583 1421.48Z"/>
<path d="M955.107 1410.89C955.107 1414.86 954.488 1418.52 953.251 1421.87C952.014 1425.23 950.224 1428.11 947.88 1430.52C945.536 1432.93 942.737 1434.77 939.482 1436.06C936.227 1437.35 932.564 1437.99 928.495 1437.99C924.459 1437.99 920.829 1437.34 917.607 1436.04C914.384 1434.73 911.593 1432.87 909.233 1430.44C906.873 1428.02 905.082 1425.15 903.862 1421.85C902.641 1418.55 902.031 1414.89 902.031 1410.89C902.031 1406.85 902.649 1403.16 903.886 1399.8C905.123 1396.45 906.897 1393.59 909.208 1391.21C911.52 1388.83 914.319 1387 917.607 1385.72C920.895 1384.43 924.524 1383.79 928.495 1383.79C932.532 1383.79 936.194 1384.44 939.482 1385.74C942.77 1387.04 945.585 1388.9 947.929 1391.31C950.273 1393.72 952.055 1396.58 953.276 1399.9C954.496 1403.22 955.107 1406.88 955.107 1410.89ZM941.728 1410.89C941.728 1405.45 940.532 1401.22 938.139 1398.19C935.746 1395.17 932.532 1393.65 928.495 1393.65C925.891 1393.65 923.596 1394.33 921.611 1395.68C919.625 1397.03 918.095 1399.02 917.021 1401.66C915.947 1404.3 915.41 1407.37 915.41 1410.89C915.41 1414.37 915.939 1417.42 916.996 1420.02C918.054 1422.62 919.568 1424.62 921.537 1426C923.507 1427.38 925.826 1428.08 928.495 1428.08C932.532 1428.08 935.746 1426.55 938.139 1423.51C940.532 1420.47 941.728 1416.26 941.728 1410.89Z"/>
<path d="M1009.94 1411.87L1009.94 1429.59C1009.94 1432.39 1009.31 1434.49 1008.04 1435.89C1006.77 1437.29 1005.09 1437.99 1003.01 1437.99C1000.99 1437.99 999.353 1437.29 998.1 1435.89C996.847 1434.49 996.22 1432.39 996.22 1429.59L996.22 1408.35C996.22 1405 996.106 1402.39 995.878 1400.54C995.65 1398.68 995.032 1397.16 994.023 1395.97C993.014 1394.78 991.419 1394.19 989.238 1394.19C984.876 1394.19 982.003 1395.69 980.62 1398.68C979.236 1401.68 978.544 1405.97 978.544 1411.57L978.544 1429.59C978.544 1432.36 977.918 1434.45 976.664 1435.86C975.411 1437.28 973.759 1437.99 971.708 1437.99C969.69 1437.99 968.038 1437.28 966.752 1435.86C965.467 1434.45 964.824 1432.36 964.824 1429.59L964.824 1391.46C964.824 1388.95 965.401 1387.04 966.557 1385.74C967.713 1384.44 969.234 1383.79 971.122 1383.79C972.945 1383.79 974.467 1384.4 975.688 1385.62C976.909 1386.84 977.519 1388.53 977.519 1390.67L977.519 1391.94C979.83 1389.18 982.304 1387.14 984.941 1385.84C987.578 1384.54 990.507 1383.89 993.73 1383.89C997.083 1383.89 999.964 1384.55 1002.37 1385.89C1004.78 1387.22 1006.77 1389.24 1008.33 1391.94C1010.58 1389.21 1012.98 1387.18 1015.56 1385.86C1018.13 1384.55 1020.98 1383.89 1024.1 1383.89C1027.75 1383.89 1030.89 1384.6 1033.52 1386.04C1036.16 1387.47 1038.13 1389.52 1039.43 1392.19C1040.57 1394.6 1041.14 1398.39 1041.14 1403.56L1041.14 1429.59C1041.14 1432.39 1040.51 1434.49 1039.24 1435.89C1037.97 1437.29 1036.29 1437.99 1034.21 1437.99C1032.19 1437.99 1030.54 1437.28 1029.25 1435.86C1027.97 1434.45 1027.32 1432.36 1027.32 1429.59L1027.32 1407.18C1027.32 1404.31 1027.2 1402.02 1026.96 1400.29C1026.71 1398.57 1026.05 1397.12 1024.98 1395.95C1023.91 1394.78 1022.28 1394.19 1020.1 1394.19C1018.34 1394.19 1016.67 1394.71 1015.09 1395.75C1013.51 1396.79 1012.28 1398.19 1011.41 1399.95C1010.43 1402.2 1009.94 1406.17 1009.94 1411.87Z"/>
<path d="M1067.41 1391.36L1067.41 1429.88C1067.41 1432.55 1066.78 1434.57 1065.51 1435.94C1064.24 1437.3 1062.63 1437.99 1060.67 1437.99C1058.72 1437.99 1057.13 1437.29 1055.91 1435.89C1054.69 1434.49 1054.08 1432.49 1054.08 1429.88L1054.08 1391.75C1054.08 1389.11 1054.69 1387.13 1055.91 1385.79C1057.13 1384.46 1058.72 1383.79 1060.67 1383.79C1062.63 1383.79 1064.24 1384.46 1065.51 1385.79C1066.78 1387.13 1067.41 1388.98 1067.41 1391.36ZM1060.82 1377.59C1058.96 1377.59 1057.38 1377.02 1056.06 1375.88C1054.74 1374.74 1054.08 1373.13 1054.08 1371.04C1054.08 1369.16 1054.76 1367.6 1056.11 1366.38C1057.46 1365.16 1059.03 1364.55 1060.82 1364.55C1062.54 1364.55 1064.07 1365.1 1065.41 1366.21C1066.74 1367.32 1067.41 1368.93 1067.41 1371.04C1067.41 1373.1 1066.76 1374.7 1065.46 1375.85C1064.16 1377.01 1062.61 1377.59 1060.82 1377.59Z"/>
<path d="M1093.29 1391.16L1093.29 1392.77C1095.63 1389.68 1098.2 1387.41 1100.98 1385.96C1103.76 1384.51 1106.96 1383.79 1110.58 1383.79C1114.09 1383.79 1117.23 1384.55 1120 1386.08C1122.77 1387.61 1124.83 1389.78 1126.2 1392.58C1127.08 1394.21 1127.65 1395.96 1127.91 1397.85C1128.17 1399.74 1128.3 1402.15 1128.3 1405.08L1128.3 1429.88C1128.3 1432.55 1127.69 1434.57 1126.47 1435.94C1125.25 1437.3 1123.66 1437.99 1121.71 1437.99C1119.72 1437.99 1118.11 1437.29 1116.87 1435.89C1115.64 1434.49 1115.02 1432.49 1115.02 1429.88L1115.02 1407.67C1115.02 1403.27 1114.41 1399.91 1113.19 1397.58C1111.97 1395.26 1109.53 1394.09 1105.89 1394.09C1103.51 1394.09 1101.35 1394.8 1099.39 1396.22C1097.44 1397.63 1096.01 1399.58 1095.1 1402.05C1094.45 1404.04 1094.12 1407.75 1094.12 1413.18L1094.12 1429.88C1094.12 1432.58 1093.49 1434.61 1092.24 1435.96C1090.99 1437.31 1089.37 1437.99 1087.38 1437.99C1085.46 1437.99 1083.88 1437.29 1082.65 1435.89C1081.41 1434.49 1080.79 1432.49 1080.79 1429.88L1080.79 1391.36C1080.79 1388.82 1081.34 1386.92 1082.45 1385.67C1083.56 1384.42 1085.07 1383.79 1086.99 1383.79C1088.16 1383.79 1089.22 1384.07 1090.17 1384.62C1091.11 1385.17 1091.87 1386 1092.44 1387.11C1093.01 1388.22 1093.29 1389.57 1093.29 1391.16Z"/>
<path d="M1190.6 1393.55L1190.6 1432.28C1190.6 1436.7 1190.13 1440.51 1189.19 1443.7C1188.24 1446.89 1186.73 1449.53 1184.65 1451.61C1182.56 1453.69 1179.84 1455.24 1176.47 1456.25C1173.1 1457.26 1168.91 1457.76 1163.9 1457.76C1159.31 1457.76 1155.2 1457.12 1151.59 1455.83C1147.98 1454.55 1145.19 1452.89 1143.24 1450.85C1141.29 1448.82 1140.31 1446.73 1140.31 1444.58C1140.31 1442.95 1140.87 1441.63 1141.97 1440.6C1143.08 1439.58 1144.41 1439.06 1145.98 1439.06C1147.93 1439.06 1149.64 1439.93 1151.1 1441.65C1151.82 1442.53 1152.56 1443.42 1153.32 1444.31C1154.09 1445.21 1154.94 1445.97 1155.86 1446.61C1156.79 1447.24 1157.91 1447.71 1159.21 1448.02C1160.51 1448.33 1162.01 1448.49 1163.7 1448.49C1167.15 1448.49 1169.83 1448.01 1171.73 1447.05C1173.64 1446.09 1174.97 1444.74 1175.74 1443.02C1176.5 1441.29 1176.95 1439.44 1177.08 1437.48C1177.21 1435.51 1177.31 1432.34 1177.37 1427.98C1175.32 1430.84 1172.95 1433.02 1170.27 1434.52C1167.58 1436.02 1164.38 1436.77 1160.67 1436.77C1156.21 1436.77 1152.32 1435.63 1148.98 1433.35C1145.64 1431.07 1143.08 1427.88 1141.29 1423.78C1139.5 1419.68 1138.6 1414.94 1138.6 1409.57C1138.6 1405.57 1139.15 1401.95 1140.24 1398.73C1141.33 1395.51 1142.88 1392.79 1144.9 1390.58C1146.92 1388.36 1149.25 1386.69 1151.88 1385.57C1154.52 1384.45 1157.42 1383.89 1160.58 1383.89C1164.35 1383.89 1167.62 1384.61 1170.39 1386.06C1173.16 1387.51 1175.73 1389.78 1178.1 1392.87L1178.1 1391.06C1178.1 1388.75 1178.67 1386.96 1179.81 1385.69C1180.95 1384.42 1182.42 1383.79 1184.21 1383.79C1186.78 1383.79 1188.49 1384.63 1189.34 1386.3C1190.18 1387.98 1190.6 1390.4 1190.6 1393.55ZM1151.98 1410.45C1151.98 1415.85 1153.16 1419.94 1155.52 1422.71C1157.88 1425.47 1160.93 1426.86 1164.68 1426.86C1166.89 1426.86 1168.98 1426.26 1170.95 1425.07C1172.92 1423.89 1174.52 1422.09 1175.76 1419.7C1177 1417.31 1177.62 1414.4 1177.62 1410.99C1177.62 1405.55 1176.42 1401.32 1174.03 1398.29C1171.64 1395.26 1168.49 1393.75 1164.58 1393.75C1160.77 1393.75 1157.72 1395.2 1155.42 1398.1C1153.13 1400.99 1151.98 1405.11 1151.98 1410.45Z"/>
</g>
<g fill="#ffffff" filter="url(#Filter_3)" stroke="none" vectornator:layerName="Text 1" vectornator:shadowAngle="0.870775" vectornator:shadowColor="#000000" vectornator:shadowOffset="18.6644" vectornator:shadowOpacity="0.4" vectornator:shadowRadius="34.4827">
<path d="M318.933 1122.36L318.933 1153.12L365.881 1153.12L365.881 1122.36C365.881 1117.96 366.87 1114.67 368.848 1112.47C370.825 1110.27 373.425 1109.17 376.648 1109.17C379.919 1109.17 382.568 1110.26 384.595 1112.43C386.621 1114.61 387.634 1117.91 387.634 1122.36L387.634 1206.95C387.634 1211.4 386.609 1214.72 384.558 1216.91C382.507 1219.11 379.871 1220.21 376.648 1220.21C373.376 1220.21 370.764 1219.1 368.811 1216.88C366.858 1214.66 365.881 1211.35 365.881 1206.95L365.881 1170.84L318.933 1170.84L318.933 1206.95C318.933 1211.4 317.908 1214.72 315.857 1216.91C313.806 1219.11 311.169 1220.21 307.947 1220.21C304.675 1220.21 302.063 1219.1 300.11 1216.88C298.157 1214.66 297.18 1211.35 297.18 1206.95L297.18 1122.36C297.18 1117.96 298.145 1114.67 300.073 1112.47C302.002 1110.27 304.626 1109.17 307.947 1109.17C311.218 1109.17 313.867 1110.26 315.894 1112.43C317.92 1114.61 318.933 1117.91 318.933 1122.36Z"/>
<path d="M465.417 1184.47L426.306 1184.47C426.355 1189.01 427.271 1193.01 429.053 1196.48C430.835 1199.95 433.203 1202.56 436.157 1204.32C439.111 1206.07 442.371 1206.95 445.935 1206.95C448.328 1206.95 450.513 1206.67 452.49 1206.11C454.468 1205.55 456.384 1204.67 458.24 1203.47C460.095 1202.28 461.804 1201 463.367 1199.63C464.929 1198.26 466.956 1196.41 469.446 1194.06C470.471 1193.18 471.936 1192.74 473.84 1192.74C475.891 1192.74 477.551 1193.31 478.821 1194.43C480.09 1195.55 480.725 1197.14 480.725 1199.19C480.725 1201 480.017 1203.11 478.601 1205.52C477.185 1207.94 475.049 1210.26 472.192 1212.48C469.336 1214.7 465.747 1216.55 461.426 1218.01C457.104 1219.48 452.136 1220.21 446.521 1220.21C433.679 1220.21 423.694 1216.55 416.565 1209.22C409.436 1201.9 405.872 1191.96 405.872 1179.41C405.872 1173.51 406.75 1168.02 408.508 1162.97C410.266 1157.92 412.83 1153.58 416.199 1149.97C419.568 1146.36 423.718 1143.59 428.65 1141.66C433.582 1139.73 439.05 1138.76 445.056 1138.76C452.869 1138.76 459.57 1140.41 465.161 1143.71C470.752 1147 474.939 1151.26 477.722 1156.49C480.505 1161.71 481.897 1167.04 481.897 1172.46C481.897 1177.49 480.457 1180.74 477.576 1182.23C474.695 1183.72 470.642 1184.47 465.417 1184.47ZM426.306 1173.11L462.561 1173.11C462.073 1166.28 460.229 1161.16 457.031 1157.77C453.833 1154.38 449.622 1152.68 444.397 1152.68C439.417 1152.68 435.327 1154.4 432.129 1157.84C428.931 1161.29 426.99 1166.38 426.306 1173.11Z"/>
<path d="M498.743 1208.05L498.743 1121.33C498.743 1117.33 499.634 1114.3 501.416 1112.25C503.198 1110.2 505.603 1109.17 508.63 1109.17C511.658 1109.17 514.099 1110.19 515.955 1112.21C517.81 1114.24 518.738 1117.28 518.738 1121.33L518.738 1208.05C518.738 1212.1 517.798 1215.14 515.918 1217.17C514.038 1219.2 511.609 1220.21 508.63 1220.21C505.701 1220.21 503.32 1219.16 501.489 1217.06C499.658 1214.96 498.743 1211.96 498.743 1208.05Z"/>
<path d="M539.392 1208.05L539.392 1121.33C539.392 1117.33 540.283 1114.3 542.065 1112.25C543.848 1110.2 546.252 1109.17 549.28 1109.17C552.307 1109.17 554.749 1110.19 556.604 1112.21C558.459 1114.24 559.387 1117.28 559.387 1121.33L559.387 1208.05C559.387 1212.1 558.447 1215.14 556.567 1217.17C554.687 1219.2 552.258 1220.21 549.28 1220.21C546.35 1220.21 543.97 1219.16 542.139 1217.06C540.308 1214.96 539.392 1211.96 539.392 1208.05Z"/>
<path d="M654.895 1179.56C654.895 1185.52 653.967 1191.01 652.112 1196.04C650.256 1201.07 647.571 1205.39 644.055 1209C640.54 1212.62 636.34 1215.39 631.458 1217.32C626.575 1219.25 621.082 1220.21 614.978 1220.21C608.923 1220.21 603.479 1219.23 598.645 1217.28C593.811 1215.33 589.624 1212.53 586.084 1208.89C582.544 1205.26 579.858 1200.96 578.027 1196C576.196 1191.05 575.281 1185.57 575.281 1179.56C575.281 1173.51 576.208 1167.96 578.064 1162.93C579.919 1157.9 582.581 1153.61 586.047 1150.04C589.514 1146.48 593.713 1143.73 598.645 1141.8C603.577 1139.88 609.021 1138.91 614.978 1138.91C621.033 1138.91 626.526 1139.89 631.458 1141.84C636.389 1143.79 640.613 1146.58 644.128 1150.19C647.644 1153.8 650.317 1158.1 652.148 1163.08C653.979 1168.06 654.895 1173.55 654.895 1179.56ZM634.827 1179.56C634.827 1171.41 633.032 1165.06 629.443 1160.52C625.854 1155.98 621.033 1153.71 614.978 1153.71C611.072 1153.71 607.629 1154.72 604.651 1156.75C601.672 1158.77 599.377 1161.76 597.766 1165.72C596.155 1169.67 595.349 1174.29 595.349 1179.56C595.349 1184.78 596.143 1189.35 597.729 1193.26C599.316 1197.16 601.587 1200.15 604.541 1202.23C607.495 1204.3 610.974 1205.34 614.978 1205.34C621.033 1205.34 625.854 1203.06 629.443 1198.49C633.032 1193.93 634.827 1187.62 634.827 1179.56Z"/>
<path d="M678.479 1220.36C675.256 1220.36 672.473 1219.37 670.129 1217.39C667.786 1215.41 666.614 1212.64 666.614 1209.08C666.614 1206 667.761 1203.41 670.056 1201.31C672.351 1199.21 675.061 1198.16 678.186 1198.16C680.53 1198.16 682.654 1198.8 684.558 1200.07C686.462 1201.34 687.952 1203.21 689.026 1205.67C690.1 1208.14 690.637 1211.18 690.637 1214.79C690.637 1219.62 689.612 1224.15 687.561 1228.38C685.51 1232.6 683.008 1235.94 680.054 1238.41C677.1 1240.88 674.426 1242.11 672.034 1242.11C670.52 1242.11 669.287 1241.61 668.335 1240.61C667.383 1239.61 666.907 1238.45 666.907 1237.13C666.907 1235.13 667.908 1233.52 669.91 1232.29C675.623 1229.12 678.479 1225.14 678.479 1220.36Z"/>
<path d="M826.794 1201.46L809.436 1137.08L791.858 1201.46C790.491 1206.34 789.404 1209.85 788.599 1211.97C787.793 1214.09 786.389 1216 784.387 1217.68C782.385 1219.37 779.724 1220.21 776.404 1220.21C773.718 1220.21 771.509 1219.71 769.775 1218.71C768.042 1217.71 766.638 1216.29 765.564 1214.46C764.49 1212.63 763.611 1210.46 762.927 1207.94C762.244 1205.43 761.633 1203.1 761.096 1200.95L743.225 1128.66C742.151 1124.46 741.614 1121.26 741.614 1119.06C741.614 1116.28 742.59 1113.94 744.543 1112.03C746.497 1110.13 748.914 1109.17 751.794 1109.17C755.75 1109.17 758.411 1110.44 759.778 1112.98C761.145 1115.52 762.341 1119.21 763.367 1124.04L777.429 1186.74L793.176 1128.07C794.348 1123.58 795.398 1120.16 796.326 1117.82C797.253 1115.47 798.767 1113.45 800.867 1111.74C802.966 1110.03 805.823 1109.17 809.436 1109.17C813.098 1109.17 815.942 1110.07 817.969 1111.85C819.995 1113.63 821.399 1115.57 822.18 1117.67C822.961 1119.77 824.011 1123.24 825.33 1128.07L841.223 1186.74L855.286 1124.04C855.969 1120.77 856.616 1118.21 857.227 1116.35C857.837 1114.5 858.887 1112.84 860.376 1111.37C861.865 1109.91 864.026 1109.17 866.858 1109.17C869.69 1109.17 872.095 1110.11 874.072 1111.99C876.05 1113.87 877.039 1116.23 877.039 1119.06C877.039 1121.06 876.501 1124.26 875.427 1128.66L857.556 1200.95C856.335 1205.83 855.322 1209.41 854.517 1211.68C853.711 1213.95 852.344 1215.94 850.415 1217.65C848.486 1219.36 845.764 1220.21 842.249 1220.21C838.928 1220.21 836.267 1219.38 834.265 1217.72C832.263 1216.06 830.872 1214.19 830.09 1212.12C829.309 1210.04 828.21 1206.49 826.794 1201.46Z"/>
<path d="M961.194 1179.56C961.194 1185.52 960.266 1191.01 958.411 1196.04C956.555 1201.07 953.87 1205.39 950.354 1209C946.838 1212.62 942.639 1215.39 937.756 1217.32C932.874 1219.25 927.38 1220.21 921.277 1220.21C915.222 1220.21 909.778 1219.23 904.944 1217.28C900.11 1215.33 895.923 1212.53 892.383 1208.89C888.843 1205.26 886.157 1200.96 884.326 1196C882.495 1191.05 881.58 1185.57 881.58 1179.56C881.58 1173.51 882.507 1167.96 884.363 1162.93C886.218 1157.9 888.879 1153.61 892.346 1150.04C895.813 1146.48 900.012 1143.73 904.944 1141.8C909.875 1139.88 915.32 1138.91 921.277 1138.91C927.332 1138.91 932.825 1139.89 937.756 1141.84C942.688 1143.79 946.912 1146.58 950.427 1150.19C953.943 1153.8 956.616 1158.1 958.447 1163.08C960.278 1168.06 961.194 1173.55 961.194 1179.56ZM941.125 1179.56C941.125 1171.41 939.331 1165.06 935.742 1160.52C932.153 1155.98 927.332 1153.71 921.277 1153.71C917.371 1153.71 913.928 1154.72 910.95 1156.75C907.971 1158.77 905.676 1161.76 904.065 1165.72C902.454 1169.67 901.648 1174.29 901.648 1179.56C901.648 1184.78 902.441 1189.35 904.028 1193.26C905.615 1197.16 907.886 1200.15 910.84 1202.23C913.794 1204.3 917.273 1205.34 921.277 1205.34C927.332 1205.34 932.153 1203.06 935.742 1198.49C939.331 1193.93 941.125 1187.62 941.125 1179.56Z"/>
<path d="M996.79 1191.35L996.79 1208.05C996.79 1212.1 995.837 1215.14 993.933 1217.17C992.029 1219.2 989.612 1220.21 986.682 1220.21C983.801 1220.21 981.433 1219.18 979.578 1217.13C977.722 1215.08 976.794 1212.06 976.794 1208.05L976.794 1152.39C976.794 1143.4 980.042 1138.91 986.536 1138.91C989.856 1138.91 992.249 1139.96 993.713 1142.06C995.178 1144.16 995.984 1147.26 996.13 1151.36C998.523 1147.26 1000.98 1144.16 1003.49 1142.06C1006.01 1139.96 1009.36 1138.91 1013.56 1138.91C1017.76 1138.91 1021.84 1139.96 1025.79 1142.06C1029.75 1144.16 1031.73 1146.94 1031.73 1150.41C1031.73 1152.85 1030.88 1154.87 1029.2 1156.45C1027.51 1158.04 1025.7 1158.83 1023.74 1158.83C1023.01 1158.83 1021.24 1158.38 1018.43 1157.48C1015.62 1156.57 1013.15 1156.12 1011 1156.12C1008.07 1156.12 1005.68 1156.89 1003.82 1158.43C1001.97 1159.97 1000.52 1162.25 999.5 1165.28C998.474 1168.31 997.766 1171.91 997.375 1176.08C996.985 1180.26 996.79 1185.35 996.79 1191.35Z"/>
<path d="M1040.66 1208.05L1040.66 1121.33C1040.66 1117.33 1041.55 1114.3 1043.33 1112.25C1045.12 1110.2 1047.52 1109.17 1050.55 1109.17C1053.58 1109.17 1056.02 1110.19 1057.87 1112.21C1059.73 1114.24 1060.66 1117.28 1060.66 1121.33L1060.66 1208.05C1060.66 1212.1 1059.72 1215.14 1057.84 1217.17C1055.96 1219.2 1053.53 1220.21 1050.55 1220.21C1047.62 1220.21 1045.24 1219.16 1043.41 1217.06C1041.58 1214.96 1040.66 1211.96 1040.66 1208.05Z"/>
<path d="M1136.1 1208.78L1136.1 1206.81C1133.41 1209.88 1130.76 1212.38 1128.15 1214.31C1125.54 1216.24 1122.71 1217.71 1119.65 1218.71C1116.6 1219.71 1113.27 1220.21 1109.66 1220.21C1104.87 1220.21 1100.44 1219.2 1096.36 1217.17C1092.29 1215.14 1088.76 1212.25 1085.78 1208.49C1082.8 1204.73 1080.54 1200.31 1079 1195.23C1077.47 1190.16 1076.7 1184.66 1076.7 1178.75C1076.7 1166.25 1079.75 1156.51 1085.85 1149.53C1091.96 1142.55 1099.99 1139.06 1109.95 1139.06C1115.71 1139.06 1120.57 1140.05 1124.52 1142.02C1128.48 1144 1132.34 1147.04 1136.1 1151.14L1136.1 1121.63C1136.1 1117.52 1136.91 1114.42 1138.55 1112.32C1140.19 1110.22 1142.52 1109.17 1145.54 1109.17C1148.57 1109.17 1150.9 1110.14 1152.54 1112.07C1154.17 1114 1154.99 1116.84 1154.99 1120.6L1154.99 1208.78C1154.99 1212.59 1154.11 1215.45 1152.36 1217.35C1150.6 1219.26 1148.33 1220.21 1145.54 1220.21C1142.81 1220.21 1140.55 1219.22 1138.77 1217.24C1136.99 1215.27 1136.1 1212.45 1136.1 1208.78ZM1096.77 1179.41C1096.77 1184.83 1097.61 1189.45 1099.29 1193.26C1100.98 1197.07 1103.28 1199.93 1106.21 1201.86C1109.14 1203.79 1112.34 1204.76 1115.81 1204.76C1119.32 1204.76 1122.53 1203.84 1125.44 1202.01C1128.34 1200.18 1130.66 1197.37 1132.4 1193.59C1134.13 1189.8 1135 1185.08 1135 1179.41C1135 1174.09 1134.13 1169.51 1132.4 1165.68C1130.66 1161.85 1128.32 1158.92 1125.37 1156.89C1122.41 1154.87 1119.18 1153.85 1115.66 1153.85C1112 1153.85 1108.73 1154.89 1105.85 1156.96C1102.97 1159.04 1100.73 1162.02 1099.15 1165.9C1097.56 1169.78 1096.77 1174.29 1096.77 1179.41Z"/>
<path d="M1181.65 1171.87L1179.31 1136.79C1178.87 1129.95 1178.65 1125.04 1178.65 1122.07C1178.65 1118.01 1179.71 1114.85 1181.84 1112.58C1183.96 1110.31 1186.76 1109.17 1190.22 1109.17C1194.42 1109.17 1197.23 1110.63 1198.65 1113.53C1200.06 1116.44 1200.77 1120.62 1200.77 1126.09C1200.77 1129.32 1200.6 1132.59 1200.26 1135.91L1197.11 1172.02C1196.77 1176.31 1196.03 1179.61 1194.91 1181.9C1193.79 1184.2 1191.93 1185.35 1189.34 1185.35C1186.71 1185.35 1184.88 1184.24 1183.85 1182.01C1182.82 1179.79 1182.09 1176.41 1181.65 1171.87ZM1189.78 1220.06C1186.8 1220.06 1184.2 1219.1 1181.98 1217.17C1179.76 1215.24 1178.65 1212.54 1178.65 1209.08C1178.65 1206.05 1179.71 1203.47 1181.84 1201.35C1183.96 1199.23 1186.56 1198.16 1189.64 1198.16C1192.71 1198.16 1195.34 1199.23 1197.51 1201.35C1199.68 1203.47 1200.77 1206.05 1200.77 1209.08C1200.77 1212.49 1199.67 1215.18 1197.47 1217.13C1195.28 1219.09 1192.71 1220.06 1189.78 1220.06Z"/>
</g>
<path d="M164.736 339.889C164.736 226.118 256.965 133.889 370.736 133.889L1129.26 133.889C1243.03 133.889 1335.26 226.118 1335.26 339.889L1335.26 2460.11C1335.26 2573.88 1243.03 2666.11 1129.26 2666.11L370.736 2666.11C256.965 2666.11 164.736 2573.88 164.736 2460.11L164.736 339.889Z" fill="none" opacity="1" stroke="#000000" stroke-linecap="butt" stroke-linejoin="miter" stroke-width="29.447" vectornator:layerName="Rectangle 1"/>
<path d="M588.71 259.517C588.71 234.066 607.897 213.434 631.565 213.434L868.435 213.434C892.103 213.434 911.29 234.066 911.29 259.517L911.29 259.517C911.29 284.968 892.103 305.6 868.435 305.6L631.565 305.6C607.897 305.6 588.71 284.968 588.71 259.517L588.71 259.517Z" fill="#000000" fill-rule="nonzero" opacity="1" stroke="none" vectornator:layerName="Rectangle 2"/>
</g>
<g id="Layer-2" vectornator:layerName="Layer 2"/>
</svg>
